<?xml version="1.0" encoding="utf-8"?>
<!-- Generator: Adobe Illustrator 16.0.0, SVG Export Plug-In . SVG Version: 6.00 Build 0)  -->
<!DOCTYPE svg PUBLIC "-//W3C//DTD SVG 1.1//EN" "http://www.w3.org/Graphics/SVG/1.1/DTD/svg11.dtd">
<svg version="1.1" id="Layer_1" xmlns="http://www.w3.org/2000/svg" xmlns:xlink="http://www.w3.org/1999/xlink" x="0px" y="0px"
	 width="250px" height="250px" viewBox="0 0 250 250" enable-background="new 0 0 250 250" xml:space="preserve">
<g>
	<path fill="none" stroke="#FFFFFF" stroke-miterlimit="10" d="M193.332,129.854c1.86-2.699,7.807-6.009,10.162-8.291
		c2.957-2.866,8.613-9.378,9.627-13.371c0.78-3.071-0.112-9.773-1.604-12.568c-2.299-4.306-10.451-10.45-14.708-12.835
		c-7.031-3.937-22.807-8.309-30.754-9.628c-7.784-1.291-23.766-2.078-31.555-0.801c-7.305,1.197-21.735,5.938-27.812,10.162
		c-6.639,4.616-18.474,16.234-22.463,23.266c-2.905,5.12-6.349,16.847-6.152,22.73c0.221,6.57,4.753,19.508,8.558,24.87
		c3.746,5.28,14.487,13.245,20.324,16.046c6.185,2.967,19.895,5.713,26.743,6.15c7.44,0.474,22.387-1.398,29.684-2.941
		c5.854-1.24,17.843-4.037,22.731-7.488c2.763-1.951,7.548-7.396,8.288-10.696c1.055-4.687-3.124-14.188-2.941-18.987
		C191.518,133.99,192.492,131.071,193.332,129.854z"/>
	<circle fill="none" stroke="#FFFFFF" stroke-miterlimit="10" cx="190.926" cy="100.436" r="7.755"/>
	<circle fill="none" stroke="#FFFFFF" stroke-miterlimit="10" cx="161.51" cy="92.147" r="7.755"/>
	<circle fill="none" stroke="#FFFFFF" stroke-miterlimit="10" cx="130.221" cy="91.612" r="7.755"/>
	<circle fill="none" stroke="#FFFFFF" stroke-miterlimit="10" cx="107.49" cy="106.854" r="7.755"/>
	<circle fill="none" stroke="#FFFFFF" stroke-miterlimit="10" cx="97.596" cy="130.656" r="7.755"/>
	<circle fill="none" stroke="#FFFFFF" stroke-miterlimit="10" cx="115.245" cy="151.515" r="7.755"/>
	<circle fill="none" stroke="#FFFFFF" stroke-miterlimit="10" cx="141.453" cy="161.141" r="7.754"/>
	<path fill="none" stroke="#FFFFFF" stroke-miterlimit="10" d="M186.379,143.225c0,5.465-5.75,9.895-12.837,9.895
		c-7.091,0-12.835-4.429-12.835-9.895c0-5.465,5.744-9.896,12.835-9.896C180.629,133.329,186.379,137.76,186.379,143.225z"/>
	<g>
		<path fill="none" stroke="#FFFFFF" stroke-miterlimit="10" d="M61.671,138.948c-7.398-1.979-12.621,1.138-12.621,1.138
			s-7.634-61.924-1.844-84.168c0.43-1.661,6.269-1.747,6.848-0.138C61.546,76.534,61.671,138.948,61.671,138.948"/>
		<path fill="none" stroke="#FFFFFF" stroke-miterlimit="10" d="M58.927,193.316c0,0-1.505-11.688,3.267-17.721
			c4.771-6.033,3.431-6.092,3.233-8.311c-0.182-1.992-2.428-5.891-4.203-6.821c-2.184-1.145-7.744-0.758-9.849,0.531
			c-1.765,1.08-4.212,5.087-4.146,7.155c0.173,5.41,2.792,8.467,4.012,11.174C52.882,182.961,58.927,193.316,58.927,193.316z"/>
		<path fill="none" stroke="#FFFFFF" stroke-miterlimit="10" d="M61.622,158.41c1.8-1.358,2.95-8.527,2.95-8.527
			s0.454-6.022-0.27-7.846c-0.332-0.846-1.559-2.375-2.395-2.734c-2.958-1.273-10.062-0.697-12.846,0.922
			c-0.936,0.547-1.847,2.763-2.042,3.828c-0.495,2.727,0.32,8.464,1.448,10.998c0.514,1.165,2.135,3.383,3.306,3.888
			C54.038,159.916,59.654,159.893,61.622,158.41z"/>
	</g>
</g>
</svg>
