<?xml version="1.0" encoding="utf-8"?>
<!-- Generator: Adobe Illustrator 16.0.0, SVG Export Plug-In . SVG Version: 6.00 Build 0)  -->
<!DOCTYPE svg PUBLIC "-//W3C//DTD SVG 1.1//EN" "http://www.w3.org/Graphics/SVG/1.1/DTD/svg11.dtd">
<svg version="1.1" id="Layer_1" xmlns="http://www.w3.org/2000/svg" xmlns:xlink="http://www.w3.org/1999/xlink" x="0px" y="0px"
	 width="190px" height="161px" viewBox="31.5 41.5 190 161" enable-background="new 31.5 41.5 190 161" xml:space="preserve">
<g>
	<path fill="none" stroke="#FFFFFF" stroke-miterlimit="10" d="M183.283,128.932c1.568-2.277,6.584-5.068,8.57-6.992
		c2.492-2.417,7.263-7.909,8.117-11.275c0.658-2.59-0.095-8.241-1.354-10.599c-1.938-3.631-8.812-8.812-12.402-10.823
		c-5.929-3.32-19.231-7.007-25.934-8.12c-6.563-1.088-20.04-1.752-26.608-0.675c-6.159,1.009-18.329,5.007-23.453,8.569
		c-5.598,3.892-15.579,13.689-18.942,19.619c-2.45,4.318-5.354,14.207-5.188,19.167c0.186,5.541,4.008,16.45,7.216,20.973
		c3.159,4.452,12.216,11.168,17.139,13.53c5.216,2.501,16.777,4.817,22.551,5.187c6.273,0.398,18.877-1.18,25.031-2.48
		c4.936-1.046,15.046-3.404,19.168-6.314c2.33-1.646,6.365-6.236,6.989-9.02c0.89-3.953-2.634-11.965-2.48-16.012
		C181.754,132.42,182.575,129.958,183.283,128.932z"/>
	<circle fill="none" stroke="#FFFFFF" stroke-miterlimit="10" cx="181.254" cy="104.125" r="6.539"/>
	<circle fill="none" stroke="#FFFFFF" stroke-miterlimit="10" cx="156.449" cy="97.135" r="6.54"/>
	<circle fill="none" stroke="#FFFFFF" stroke-miterlimit="10" cx="130.064" cy="96.684" r="6.54"/>
	<circle fill="none" stroke="#FFFFFF" stroke-miterlimit="10" cx="110.896" cy="109.537" r="6.54"/>
	<circle fill="none" stroke="#FFFFFF" stroke-miterlimit="10" cx="102.553" cy="129.607" r="6.54"/>
	<circle fill="none" stroke="#FFFFFF" stroke-miterlimit="10" cx="117.436" cy="147.197" r="6.539"/>
	<circle fill="none" stroke="#FFFFFF" stroke-miterlimit="10" cx="139.536" cy="155.314" r="6.539"/>
	<path fill="none" stroke="#FFFFFF" stroke-miterlimit="10" d="M177.42,140.206c0,4.608-4.849,8.344-10.824,8.344
		c-5.979,0-10.824-3.734-10.824-8.344c0-4.608,4.845-8.345,10.824-8.345C172.571,131.861,177.42,135.598,177.42,140.206z"/>
	<g>
		<path fill="none" stroke="#FFFFFF" stroke-miterlimit="10" d="M72.259,136.6c-6.239-1.668-10.643,0.96-10.643,0.96
			s-6.438-52.218-1.555-70.976c0.363-1.401,5.286-1.473,5.774-0.117C72.154,83.969,72.259,136.6,72.259,136.6"/>
		<path fill="none" stroke="#FFFFFF" stroke-miterlimit="10" d="M69.945,182.447c0,0-1.269-9.856,2.755-14.943
			c4.023-5.088,2.893-5.137,2.727-7.008c-0.154-1.681-2.048-4.968-3.544-5.753c-1.842-0.965-6.53-0.639-8.305,0.448
			c-1.488,0.91-3.552,4.289-3.497,6.033c0.146,4.562,2.355,7.141,3.383,9.423C64.848,173.715,69.945,182.447,69.945,182.447z"/>
		<path fill="none" stroke="#FFFFFF" stroke-miterlimit="10" d="M72.218,153.012c1.518-1.146,2.487-7.191,2.487-7.191
			s0.383-5.078-0.227-6.615c-0.28-0.713-1.314-2.003-2.02-2.307c-2.495-1.073-8.485-0.588-10.833,0.777
			c-0.789,0.462-1.557,2.33-1.721,3.229c-0.418,2.299,0.27,7.138,1.221,9.274c0.434,0.982,1.8,2.853,2.788,3.278
			C65.822,154.281,70.558,154.262,72.218,153.012z"/>
	</g>
</g>
</svg>
