<?xml version="1.0" encoding="utf-8"?>
<!-- Generator: Adobe Illustrator 16.0.0, SVG Export Plug-In . SVG Version: 6.00 Build 0)  -->
<!DOCTYPE svg PUBLIC "-//W3C//DTD SVG 1.1//EN" "http://www.w3.org/Graphics/SVG/1.1/DTD/svg11.dtd">
<svg version="1.1" id="Layer_2" xmlns="http://www.w3.org/2000/svg" xmlns:xlink="http://www.w3.org/1999/xlink" x="0px" y="0px"
	 width="50px" height="50px" viewBox="0 0 50 50" enable-background="new 0 0 50 50" xml:space="preserve">
<g id="g3234_1_" transform="translate(0,70)">
	<path id="path35229_1_" d="M25.125-60.899c-8.919,0-16.15,7.23-16.15,16.149c0,8.919,7.231,16.15,16.15,16.15
		c8.919,0,16.15-7.23,16.15-16.15C41.275-53.669,34.044-60.899,25.125-60.899z"/>
	<path id="path3_1_" fill="#FFFFFF" d="M25.125-35.768c-4.953,0-8.982-4.029-8.982-8.982c0-4.952,4.029-8.981,8.982-8.981
		c4.951,0,8.981,4.03,8.981,8.981C34.106-39.797,30.076-35.768,25.125-35.768z M32.699-43.521c-0.262-0.081-2.375-0.711-4.779-0.326
		c1.004,2.758,1.412,5.004,1.49,5.471C31.133-39.541,32.359-41.385,32.699-43.521z M28.121-37.675
		c-0.113-0.673-0.56-3.021-1.637-5.818c-0.016,0.006-0.033,0.011-0.049,0.017c-4.329,1.508-5.882,4.508-6.02,4.792
		c1.301,1.015,2.936,1.619,4.709,1.619C26.188-37.065,27.201-37.281,28.121-37.675z M19.426-39.607
		c0.172-0.298,2.278-3.783,6.235-5.063c0.101-0.033,0.2-0.063,0.302-0.091c-0.191-0.435-0.402-0.872-0.621-1.301
		c-3.833,1.147-7.549,1.099-7.885,1.092c-0.002,0.077-0.004,0.154-0.004,0.233C17.453-42.767,18.2-40.967,19.426-39.607z
		 M17.615-46.309c0.344,0.004,3.504,0.019,7.093-0.935c-1.271-2.259-2.643-4.159-2.843-4.437
		C19.717-50.668,18.113-48.689,17.615-46.309L17.615-46.309z M23.326-52.196c0.212,0.284,1.606,2.181,2.863,4.492
		c2.728-1.023,3.883-2.575,4.021-2.772c-1.353-1.202-3.136-1.934-5.085-1.934C24.505-52.41,23.905-52.335,23.326-52.196
		L23.326-52.196z M31.062-49.589c-0.16,0.219-1.447,1.868-4.282,3.025c0.177,0.365,0.349,0.737,0.509,1.111
		c0.057,0.132,0.109,0.264,0.164,0.395c2.554-0.321,5.09,0.195,5.344,0.247C32.777-46.62,32.133-48.283,31.062-49.589L31.062-49.589
		z"/>
</g>
</svg>
