<?xml version="1.0" encoding="utf-8"?>
<!-- Generator: Adobe Illustrator 16.0.0, SVG Export Plug-In . SVG Version: 6.00 Build 0)  -->
<!DOCTYPE svg PUBLIC "-//W3C//DTD SVG 1.1//EN" "http://www.w3.org/Graphics/SVG/1.1/DTD/svg11.dtd">
<svg version="1.1" id="Layer_1" xmlns="http://www.w3.org/2000/svg" xmlns:xlink="http://www.w3.org/1999/xlink" x="0px" y="0px"
	 width="50px" height="50px" viewBox="0 0 50 50" enable-background="new 0 0 50 50" xml:space="preserve">
<g id="g24399" transform="matrix(0.81249983,0,0,0.81249983,-96.062435,8.749998)">
	<path id="path6615" d="M148.637,0.52c-10.928,0-19.787,8.859-19.787,19.787s8.859,19.787,19.787,19.787
		c10.928,0,19.787-8.859,19.787-19.787S159.565,0.52,148.637,0.52z"/>
	<path id="path6617" fill="#FFFFFF" d="M150.49,32.365h-4.982V20.306h-2.489v-4.155h2.489v-2.495c0-3.389,1.405-5.406,5.399-5.406
		h3.325v4.156h-2.078c-1.554,0-1.657,0.581-1.657,1.665l-0.006,2.081h3.764l-0.44,4.155h-3.325V32.365L150.49,32.365z"/>
</g>
</svg>
