<?xml version="1.0" encoding="utf-8"?>
<!-- Generator: Adobe Illustrator 16.0.0, SVG Export Plug-In . SVG Version: 6.00 Build 0)  -->
<!DOCTYPE svg PUBLIC "-//W3C//DTD SVG 1.1//EN" "http://www.w3.org/Graphics/SVG/1.1/DTD/svg11.dtd">
<svg version="1.1" id="Layer_1" xmlns="http://www.w3.org/2000/svg" xmlns:xlink="http://www.w3.org/1999/xlink" x="0px" y="0px"
	 width="50px" height="50px" viewBox="0 0 50 50" enable-background="new 0 0 50 50" xml:space="preserve">
<g id="g24422" transform="matrix(0.81249983,0,0,0.81249983,-96.06243,-111.24995)">
	<path id="path3928" d="M149,148.213c-10.929,0-19.787,8.859-19.787,19.787s8.858,19.787,19.787,19.787
		c10.928,0,19.787-8.859,19.787-19.787S159.928,148.213,149,148.213z"/>
	<path id="path3930" fill="#FFFFFF" d="M146.603,158.16c-0.728,0-1.525,0.094-2.376,0.27c-0.835,0.178-1.633,0.577-2.397,1.198
		c-0.569,0.498-0.992,1.061-1.275,1.701c-0.285,0.621-0.425,1.243-0.425,1.864c0,0.516,0.095,1.032,0.29,1.546
		c0.195,0.498,0.477,0.944,0.851,1.334c0.373,0.391,0.84,0.708,1.391,0.957c0.55,0.231,1.174,0.347,1.885,0.347h0.425
		c0.142-0.018,0.292-0.04,0.434-0.058c-0.071,0.16-0.141,0.323-0.194,0.483c-0.053,0.142-0.077,0.329-0.077,0.56
		c0,0.409,0.082,0.749,0.242,1.035c0.178,0.266,0.365,0.523,0.56,0.773c-0.302,0.018-0.663,0.05-1.072,0.087
		c-0.409,0.035-0.843,0.095-1.304,0.184c-0.462,0.089-0.931,0.206-1.411,0.347c-0.462,0.16-0.897,0.361-1.304,0.608
		c-0.781,0.463-1.31,1-1.594,1.603c-0.302,0.621-0.454,1.163-0.454,1.643c0,0.498,0.117,0.977,0.347,1.419
		c0.231,0.463,0.584,0.862,1.062,1.219c0.48,0.355,1.077,0.647,1.788,0.859c0.727,0.214,1.572,0.319,2.531,0.319
		c1.136,0,2.135-0.151,3.005-0.453c0.887-0.285,1.626-0.671,2.213-1.149c0.585-0.463,1.03-0.99,1.334-1.595
		c0.299-0.605,0.453-1.215,0.453-1.837c0-0.46-0.07-0.871-0.194-1.227c-0.125-0.355-0.29-0.672-0.502-0.957
		c-0.195-0.284-0.441-0.553-0.725-0.8c-0.267-0.25-0.537-0.496-0.821-0.745l-0.957-0.744c-0.142-0.124-0.294-0.274-0.454-0.434
		c-0.16-0.178-0.242-0.413-0.242-0.715s0.082-0.549,0.242-0.744c0.16-0.195,0.325-0.383,0.502-0.56
		c0.284-0.213,0.564-0.436,0.831-0.667c0.267-0.249,0.502-0.518,0.715-0.802c0.213-0.302,0.387-0.632,0.512-1.005
		c0.125-0.373,0.184-0.808,0.184-1.305c0-0.496-0.071-0.942-0.213-1.333s-0.317-0.73-0.512-1.014
		c-0.195-0.302-0.395-0.548-0.608-0.744c-0.214-0.213-0.401-0.387-0.56-0.512h1.651l1.702-0.957H146.603L146.603,158.16z
		 M156.304,158.499v3.487h-3.488v1.267h3.488v3.487h1.266v-3.487h3.488v-1.267h-3.488v-3.487H156.304z M144.922,159.04
		c0.55,0,1.031,0.175,1.44,0.512c0.425,0.32,0.778,0.721,1.062,1.218c0.285,0.496,0.496,1.036,0.638,1.603
		c0.142,0.569,0.213,1.087,0.213,1.565c0,0.249-0.036,0.565-0.107,0.938c-0.071,0.373-0.258,0.713-0.56,1.014
		c-0.213,0.214-0.484,0.389-0.821,0.531c-0.32,0.143-0.648,0.214-0.986,0.213c-0.569,0-1.062-0.163-1.488-0.483
		c-0.409-0.337-0.76-0.748-1.043-1.227c-0.267-0.48-0.468-0.986-0.609-1.536c-0.125-0.55-0.192-1.053-0.192-1.498
		c0-0.355,0.035-0.696,0.106-1.034c0.089-0.337,0.252-0.653,0.483-0.938c0.213-0.266,0.483-0.477,0.821-0.637
		C144.216,159.121,144.567,159.04,144.922,159.04L144.922,159.04z M145.85,170.923h0.377h0.319c0.088,0,0.183,0,0.29,0.02
		c0.498,0.353,0.931,0.68,1.304,0.966c0.373,0.282,0.677,0.554,0.909,0.82c0.23,0.268,0.405,0.536,0.512,0.803
		c0.124,0.282,0.184,0.589,0.184,0.928c0,0.834-0.341,1.516-1.014,2.048c-0.657,0.55-1.62,0.829-2.899,0.829
		c-1.439,0-2.588-0.303-3.44-0.906c-0.834-0.603-1.246-1.38-1.246-2.34c0-0.478,0.083-0.876,0.261-1.198
		c0.196-0.317,0.418-0.588,0.667-0.8c0.248-0.213,0.495-0.388,0.744-0.513c0.266-0.106,0.476-0.178,0.618-0.232
		c0.285-0.088,0.578-0.169,0.88-0.24c0.302-0.054,0.583-0.1,0.85-0.136C145.43,170.954,145.654,170.94,145.85,170.923
		L145.85,170.923z"/>
</g>
</svg>
