<?xml version="1.0" encoding="utf-8"?>
<!-- Generator: Adobe Illustrator 16.0.0, SVG Export Plug-In . SVG Version: 6.00 Build 0)  -->
<!DOCTYPE svg PUBLIC "-//W3C//DTD SVG 1.1//EN" "http://www.w3.org/Graphics/SVG/1.1/DTD/svg11.dtd">
<svg version="1.1" id="Layer_1" xmlns="http://www.w3.org/2000/svg" xmlns:xlink="http://www.w3.org/1999/xlink" x="0px" y="0px"
	 width="50px" height="50px" viewBox="0 0 50 50" enable-background="new 0 0 50 50" xml:space="preserve">
<g id="g4160" transform="matrix(0.81249983,0,0,0.81249983,-156.06246,-51.249973)">
	<path id="path3214" d="M223.208,74.367c-10.928,0-19.787,8.859-19.787,19.787s8.859,19.787,19.787,19.787
		s19.787-8.859,19.787-19.787S234.136,74.367,223.208,74.367z"/>
	<path id="rect4122" fill="#FFFFFF" d="M216.714,84.57c-1.715,0-3.09,1.375-3.09,3.09v12.988c0,1.716,1.375,3.091,3.09,3.091h12.988
		c1.714,0,3.09-1.375,3.09-3.091V87.66c0-1.715-1.376-3.09-3.09-3.09H216.714z M227.025,86.722h2.913
		c0.386,0,0.702,0.315,0.702,0.701v2.915c0,0.386-0.316,0.701-0.702,0.701h-2.913c-0.387,0-0.702-0.315-0.702-0.701v-2.915
		C226.323,87.037,226.638,86.722,227.025,86.722z M223.214,90.502c2.156,0,3.882,1.736,3.882,3.894c0,2.156-1.726,3.883-3.882,3.883
		c-2.159,0-3.905-1.727-3.905-3.883C219.309,92.238,221.055,90.502,223.214,90.502z M215.22,92.873h2.667
		c-0.138,0.483-0.216,0.996-0.216,1.524c0,3.048,2.493,5.531,5.543,5.531c3.047,0,5.53-2.483,5.53-5.531
		c0-0.528-0.087-1.04-0.226-1.524h2.678v7.508c0,1.15-0.93,2.081-2.081,2.081h-11.825c-1.153,0-2.071-0.93-2.071-2.081V92.873z"/>
</g>
</svg>
