<?xml version="1.0" encoding="utf-8"?>
<!-- Generator: Adobe Illustrator 16.0.0, SVG Export Plug-In . SVG Version: 6.00 Build 0)  -->
<!DOCTYPE svg PUBLIC "-//W3C//DTD SVG 1.1//EN" "http://www.w3.org/Graphics/SVG/1.1/DTD/svg11.dtd">
<svg version="1.1" id="Layer_1" xmlns="http://www.w3.org/2000/svg" xmlns:xlink="http://www.w3.org/1999/xlink" x="0px" y="0px"
	 width="50px" height="50px" viewBox="0 0 50 50" enable-background="new 0 0 50 50" xml:space="preserve">
<g id="g3590" transform="matrix(0.81249983,0,0,0.81249983,253.93752,-56.24999)">
	<path id="path6685" d="M-281.335,80.52c-10.928,0-19.787,8.859-19.787,19.787s8.859,19.787,19.787,19.787
		s19.787-8.859,19.787-19.787S-270.407,80.52-281.335,80.52z"/>
	<path id="path6689" fill="#FFFFFF" d="M-288.794,91.109c-1.412,0-2.338,0.928-2.338,2.145c0,1.192,0.894,2.126,2.28,2.126h0.019
		c1.439,0,2.338-0.934,2.338-2.126C-286.522,92.037-287.382,91.109-288.794,91.109L-288.794,91.109z M-276.62,96.81
		c-2.198,0-3.163,1.202-3.71,2.048v0.04h-0.038c0.007-0.011,0.031-0.028,0.038-0.04V97.1h-4.136c0.054,1.166,0,12.406,0,12.406
		h4.136v-6.938c0-0.37,0.025-0.738,0.135-1.005c0.299-0.74,0.966-1.507,2.107-1.507c1.493,0,2.106,1.133,2.106,2.802v6.648h4.117
		v-7.111C-271.867,98.582-273.906,96.81-276.62,96.81z M-290.881,97.1v12.406h4.135V97.1H-290.881z"/>
</g>
</svg>
