<?xml version="1.0" encoding="utf-8"?>
<!-- Generator: Adobe Illustrator 16.0.0, SVG Export Plug-In . SVG Version: 6.00 Build 0)  -->
<!DOCTYPE svg PUBLIC "-//W3C//DTD SVG 1.1//EN" "http://www.w3.org/Graphics/SVG/1.1/DTD/svg11.dtd">
<svg version="1.1" id="Layer_1" xmlns="http://www.w3.org/2000/svg" xmlns:xlink="http://www.w3.org/1999/xlink" x="0px" y="0px"
	 width="250px" height="250px" viewBox="0 0 250 250" enable-background="new 0 0 250 250" xml:space="preserve">
<g id="MacBook">
	<path fill="none" stroke="#FFFFFF" stroke-miterlimit="10" d="M50.188,170.648h151.537V74.979H50.188V170.648z M51.336,76.128
		h149.241v93.371H51.336"/>
	<path fill="none" stroke="#FFFFFF" stroke-miterlimit="10" d="M236.613,177.152h-26.852V73.449c0-3.382-2.741-6.123-6.123-6.123
		H48.274c-3.381,0-6.123,2.741-6.123,6.123v103.703H15.174c-0.423,0-0.765,0.343-0.765,0.766v4.721c0,0.319,0.195,0.592,0.473,0.706
		c2.921,2.198,6.746,3.534,10.935,3.534H225.99c4.214,0,8.058-1.35,10.985-3.57c0.239-0.13,0.402-0.38,0.402-0.67v-4.721
		C237.378,177.495,237.035,177.152,236.613,177.152z M43.3,176.005v-0.432V73.449c0-2.743,2.231-4.975,4.974-4.975h155.364
		c2.744,0,4.975,2.232,4.975,4.975v102.124l0,0v1.579H43.3V176.005z"/>
</g>
</svg>
