<?xml version="1.0" encoding="utf-8"?>
<!-- Generator: Adobe Illustrator 16.0.0, SVG Export Plug-In . SVG Version: 6.00 Build 0)  -->
<!DOCTYPE svg PUBLIC "-//W3C//DTD SVG 1.1//EN" "http://www.w3.org/Graphics/SVG/1.1/DTD/svg11.dtd">
<svg version="1.1" id="Layer_1" xmlns="http://www.w3.org/2000/svg" xmlns:xlink="http://www.w3.org/1999/xlink" x="0px" y="0px"
	 width="250px" height="250px" viewBox="0 0 250 250" enable-background="new 0 0 250 250" xml:space="preserve">
<g id="MacBook">
	<path fill="none" stroke="#FFFFFF" stroke-miterlimit="10" d="M50.188,170.648h151.537V74.979H50.188V170.648z"/>
	<path fill="none" stroke="#FFFFFF" stroke-miterlimit="10" d="M236.613,177.152h-26.852V73.449c0-3.382-2.742-6.123-6.123-6.123
		H48.274c-3.381,0-6.123,2.741-6.123,6.123v103.703H15.174c-0.423,0-0.765,0.343-0.765,0.766v4.721c0,0.319,0.195,0.592,0.473,0.707
		c2.921,2.197,6.746,3.533,10.935,3.533H225.99c4.214,0,8.058-1.35,10.984-3.57c0.239-0.129,0.402-0.379,0.402-0.67v-4.721
		C237.378,177.495,237.035,177.152,236.613,177.152z"/>
</g>
<line fill="none" stroke="#FFFFFF" stroke-miterlimit="10" x1="42.151" y1="177.152" x2="209.762" y2="177.152"/>
</svg>
