<?xml version="1.0" encoding="utf-8"?>
<!-- Generator: Adobe Illustrator 16.0.0, SVG Export Plug-In . SVG Version: 6.00 Build 0)  -->
<!DOCTYPE svg PUBLIC "-//W3C//DTD SVG 1.1//EN" "http://www.w3.org/Graphics/SVG/1.1/DTD/svg11.dtd">
<svg version="1.1" id="Layer_1" xmlns="http://www.w3.org/2000/svg" xmlns:xlink="http://www.w3.org/1999/xlink" x="0px" y="0px"
	 width="50px" height="50px" viewBox="0 0 50 50" enable-background="new 0 0 50 50" xml:space="preserve">
<g id="g24426" transform="matrix(0.81249983,0,0,0.81249983,-96.062439,13.750013)">
	<path id="path6697" d="M148.565-5.633c-10.928,0-19.787,8.859-19.787,19.787s8.859,19.787,19.787,19.787
		c10.929,0,19.787-8.859,19.787-19.787S159.494-5.633,148.565-5.633z"/>
	<path id="path6699" fill="#FFFFFF" d="M136.507,17.873c1.57,1.451,5.6,2.825,8.88-0.391c-0.59,0.093-1.082-0.019-1.457-0.389
		c-0.353-0.352-0.374-0.715-0.184-1.044c0.155-0.27,0.478-0.459,0.799-0.657c-0.579,0.107-1.076,0.052-1.517-0.175
		c-0.594-0.303-1.172-0.621-1.334-1.281c0.363-0.38,0.767-0.722,1.642-0.595c-0.822-0.273-1.558-0.631-2.091-1.168
		c-0.519-0.522-0.573-0.862-0.656-1.272c0.452-0.167,0.927-0.255,1.435-0.204c-1.149-0.588-1.637-1.395-1.907-2.276
		c-0.081-0.266-0.097-0.519-0.062-0.779c4.655,1.757,6.834,3.019,8.038,4.204c0.541-1.441,1.804-4.704,3.692-5.825
		c0.008,0.178-0.062,0.369-0.206,0.575c0.559-0.311,0.995-0.81,1.763-0.8c-0.089,0.364-0.341,0.655-0.841,0.841
		c0.502-0.192,1.011-0.356,1.538-0.452c0.489-0.088,0.482,0.298,0.206,0.493c-0.56,0.397-1.159,0.446-1.744,0.636
		c1.796,0.044,3.264,0.895,4.409,2.748c0.382,0.617,0.638,1.232,0.698,1.907c0.764,0.214,1.529,0.258,2.297,0.123
		c0.21-0.037,0.406-0.077,0.595-0.163c-0.299,0.448-0.644,0.817-1.129,0.983c-0.46,0.16-0.924,0.315-1.435,0.329
		c0.832,0.314,1.748,0.332,2.688,0.267c-1.151,1.106-2.031,1.079-2.913,1.065c-0.387,1.636-1.178,3.264-2.85,4.758
		c-2.192,1.958-4.553,2.892-6.994,3.096c-2.286,0.192-4.496,0.167-6.909-0.963C139.168,20.623,137.668,19.471,136.507,17.873
		L136.507,17.873z"/>
</g>
</svg>
